<svg width="37" height="36" viewBox="0 0 37 36" fill="none" xmlns="http://www.w3.org/2000/svg">
<g clip-path="url(#clip0_729_281)">
<path fill-rule="evenodd" clip-rule="evenodd" d="M19.7556 33.75H8.77563C5.67063 33.75 3.15063 31.2317 3.15063 28.125C3.15063 22.5523 3.15063 13.3341 3.15063 9.5625C3.15063 8.00944 4.41063 6.75 5.96313 6.75H25.0881C26.6406 6.75 27.9006 8.00944 27.9006 9.5625V18.9748C26.725 18.3521 25.3863 18 23.9631 18C19.3056 18 15.5256 21.7806 15.5256 26.4375C15.5256 29.5616 17.23 32.2914 19.7556 33.75Z" fill="#2F2F2F"/>
<path fill-rule="evenodd" clip-rule="evenodd" d="M10.4631 10.1226V7.31031C10.4631 5.96759 10.9965 4.68005 11.9463 3.73056C12.8955 2.78106 14.1831 2.24784 15.5258 2.24784C16.8684 2.24784 18.1561 2.78106 19.1052 3.73056C20.055 4.68005 20.5884 5.96759 20.5884 7.31031V10.1226C20.5884 10.7435 21.0927 11.2475 21.7133 11.2475C22.3339 11.2475 22.8381 10.7435 22.8381 10.1226C22.8381 10.1226 22.8381 8.87578 22.8381 7.31031C22.8381 5.37097 22.0678 3.51109 20.6967 2.13955C19.3249 0.768427 17.4649 -0.00195312 15.5258 -0.00195312C13.5866 -0.00195312 11.7266 0.768427 10.3549 2.13955C8.98372 3.51109 8.21338 5.37097 8.21338 7.31031V10.1226C8.21338 10.7435 8.71766 11.2475 9.33826 11.2475C9.95887 11.2475 10.4631 10.7435 10.4631 10.1226Z" fill="#C2C2C2"/>
<path fill-rule="evenodd" clip-rule="evenodd" d="M23.9631 16.875C18.6869 16.875 14.4006 21.1596 14.4006 26.4375C14.4006 31.7154 18.6869 36 23.9631 36C29.2394 36 33.5256 31.7154 33.5256 26.4375C33.5256 21.1596 29.2394 16.875 23.9631 16.875ZM18.67 27.2329L22.045 30.6079C22.4837 31.0472 23.1925 31.0472 23.6313 30.6079L29.2563 24.9829C29.695 24.5441 29.695 23.8309 29.2563 23.3921C28.8175 22.9528 28.1087 22.9528 27.67 23.3921L22.8381 28.2217L20.2563 25.6421C19.8175 25.2028 19.1087 25.2028 18.67 25.6421C18.2312 26.0809 18.2312 26.7941 18.67 27.2329Z" fill="#C2C2C2"/>
</g>
<defs>
<clipPath id="clip0_729_281">
<rect width="36" height="36" fill="white" transform="translate(0.338135)"/>
</clipPath>
</defs>
</svg>
