<svg width="60" height="60" viewBox="0 0 60 60" fill="none" xmlns="http://www.w3.org/2000/svg">
<rect width="60" height="60" rx="10" fill="#DCFCE7"/>
<path fill-rule="evenodd" clip-rule="evenodd" d="M31.915 19.8807C31.915 16.6329 29.2413 14 25.9433 14L25.6156 14.0087C22.4699 14.1762 19.9716 16.7412 19.9716 19.8807C19.9716 23.1287 22.6453 25.7615 25.9433 25.7615L26.271 25.7528C29.4166 25.5854 31.915 23.0204 31.915 19.8807ZM27.6495 39.2034C27.6495 41.0396 28.148 42.7612 29.019 44.244H14V38.1952C14 33.3095 17.8124 29.3257 22.5882 29.1296L22.9574 29.122H28.9291C30.4834 29.122 31.9452 29.523 33.2193 30.2284C29.9123 31.8996 27.6495 35.2912 27.6495 39.2034ZM32.8722 46L37.8866 42.9839L42.9009 46L41.5377 40.3715L46 36.6073L40.1431 36.1449L37.8866 30.8022L35.6301 36.1449L29.7732 36.6073L34.2355 40.3715L32.8722 46Z" fill="#16A34A"/>
</svg>
