<svg width="32" height="32" viewBox="0 0 32 32" fill="none" xmlns="http://www.w3.org/2000/svg">
<g clip-path="url(#clip0_14_79)">
<path fill-rule="evenodd" clip-rule="evenodd" d="M9.6 25.6C7.84 25.6 6.4 27.04 6.4 28.8C6.4 30.56 7.84 32 9.6 32C11.36 32 12.8 30.56 12.8 28.8C12.8 27.04 11.36 25.6 9.6 25.6ZM0 0V3.2H3.2L8.96 15.36L6.72 19.2C6.56 19.68 6.4 20.32 6.4 20.8C6.4 22.56 7.84 24 9.6 24H28.8V20.8H10.24C10.08 20.8 9.92 20.64 9.92 20.48V20.32L11.36 17.6H23.2C24.48 17.6 25.44 16.96 25.92 16L31.68 5.6C32 5.28 32 5.12 32 4.8C32 3.84 31.36 3.2 30.4 3.2H6.72L5.28 0H0ZM25.6 25.6C23.84 25.6 22.4 27.04 22.4 28.8C22.4 30.56 23.84 32 25.6 32C27.36 32 28.8 30.56 28.8 28.8C28.8 27.04 27.36 25.6 25.6 25.6Z" fill="#FF8C8C"/>
</g>
<defs>
<clipPath id="clip0_14_79">
<rect width="32" height="32" fill="white"/>
</clipPath>
</defs>
</svg>
