<svg width="32" height="32" viewBox="0 0 32 32" fill="none" xmlns="http://www.w3.org/2000/svg">
<path d="M25.8925 19.7428L25.8921 19.7423L25.8917 19.7419C25.732 19.5636 25.5265 19.4326 25.2975 19.3631L16.6437 16.7475C16.2244 16.6197 15.7766 16.6196 15.3572 16.7474L6.70259 19.3633C6.47378 19.4328 6.26843 19.5637 6.1089 19.7419L6.10853 19.7424L6.10811 19.7428C5.89579 19.981 5.77843 20.289 5.77833 20.6081V27.4894C5.77721 27.7687 5.86652 28.0408 6.0329 28.2651C6.19927 28.4894 6.43378 28.6538 6.70136 28.7337L15.3536 31.3614C15.5631 31.4255 15.781 31.458 16 31.4578C16.03 31.4577 16.0598 31.4537 16.0887 31.4458C16.088 31.4487 16.0876 31.4518 16.0869 31.4546C16.2764 31.4479 16.4642 31.4166 16.6457 31.3616L25.3055 28.7314C25.5714 28.6504 25.8041 28.4858 25.9692 28.2621C26.1342 28.0384 26.2227 27.7674 26.2216 27.4894V20.6081C26.2217 20.2891 26.1046 19.9811 25.8925 19.7428ZM15.6562 30.7312C15.6219 30.7233 15.5879 30.7142 15.5541 30.7038L6.90112 28.0759C6.77498 28.0382 6.6644 27.9607 6.58594 27.855C6.50747 27.7493 6.46533 27.6211 6.46582 27.4894V20.6081C6.46583 20.5282 6.48153 20.449 6.51202 20.3751L15.4691 23.0957L15.5017 23.1056L15.6562 23.1526V30.7312ZM16 22.5385L7.30822 19.8984L15.5566 17.4053C15.846 17.3172 16.1551 17.3173 16.4445 17.4055L24.6923 19.8984L21.9846 20.7208L17.9361 19.5006C17.8918 19.4869 17.8446 19.4864 17.8001 19.4994L15.7592 20.0789C15.7331 20.0863 15.71 20.1021 15.6936 20.1237C15.6771 20.1453 15.6681 20.1717 15.6679 20.1989C15.6677 20.226 15.6763 20.2526 15.6924 20.2744C15.7085 20.2963 15.7313 20.3124 15.7573 20.3203L19.55 21.4603L16 22.5385ZM25.5341 27.4894C25.5348 27.6201 25.4933 27.7475 25.4159 27.8528C25.3385 27.9581 25.2292 28.0357 25.1043 28.074L16.4449 30.7041C16.4115 30.7143 16.3778 30.7234 16.3437 30.7313V23.1526L20.1308 22.0024V24.8164C20.1308 24.8538 20.1394 24.8907 20.156 24.9243C20.1726 24.9578 20.1967 24.9871 20.2265 25.0097C20.2562 25.0324 20.2908 25.048 20.3276 25.0551C20.3643 25.0622 20.4022 25.0608 20.4383 25.0509L22.3991 24.5108C22.4505 24.4967 22.4958 24.4661 22.528 24.4237C22.5603 24.3813 22.5777 24.3296 22.5777 24.2763V21.3357C22.5777 21.3106 22.5761 21.2856 22.5729 21.2608V21.2607L25.5341 20.3613L25.5341 27.4894Z" fill="#9333EA"/>
<path d="M16.9321 29.662L19.6588 28.7845V28.0856L16.9321 28.9631V29.662Z" fill="#9333EA"/>
<path d="M16.9321 28.3823L19.6588 27.5048V26.8059L16.9321 27.6834V28.3823Z" fill="#9333EA"/>
<path d="M15.1751 14.6771C15.4172 14.8234 15.6947 14.9007 15.9777 14.9007C16.2606 14.9007 16.5381 14.8234 16.7803 14.6771C18.3909 13.7056 21.8637 10.8973 21.8559 4.74427C21.8568 4.52647 21.7756 4.31633 21.6284 4.15578C21.4812 3.99524 21.2789 3.89608 21.0618 3.87809C20.0055 3.79824 18.0831 3.36934 16.714 1.42844C16.631 1.31017 16.5208 1.21363 16.3926 1.14698C16.2645 1.08033 16.1221 1.04553 15.9777 1.04553C15.8332 1.04553 15.6909 1.08033 15.5627 1.14698C15.4345 1.21363 15.3243 1.31017 15.2414 1.42844C13.8723 3.36934 11.9499 3.79824 10.8935 3.87809C10.6764 3.89607 10.4741 3.99522 10.3269 4.15577C10.1797 4.31632 10.0985 4.52646 10.0994 4.74427C10.0916 10.8973 13.5644 13.7056 15.1751 14.6771ZM11.9328 5.18474C13.3635 4.92994 14.6738 4.22056 15.6692 3.16192C15.7088 3.1198 15.7566 3.08624 15.8096 3.06329C15.8627 3.04035 15.9199 3.02851 15.9777 3.02851C16.0355 3.02851 16.0926 3.04035 16.1457 3.06329C16.1987 3.08624 16.2465 3.1198 16.2861 3.16192C17.2815 4.22059 18.5918 4.92998 20.0225 5.18474C20.1245 5.20348 20.2163 5.25875 20.2806 5.34023C20.3449 5.42171 20.3773 5.52381 20.3718 5.62746C20.1097 10.4348 17.3313 12.6322 16.1023 13.3734C16.0648 13.3963 16.0217 13.4084 15.9777 13.4084C15.9338 13.4084 15.8907 13.3963 15.8532 13.3735C14.6241 12.6322 11.8457 10.4348 11.5835 5.62746C11.578 5.52381 11.6104 5.42171 11.6747 5.34023C11.739 5.25876 11.8308 5.20348 11.9328 5.18474Z" fill="#9333EA"/>
<path d="M16.0023 10.545C16.6185 10.5445 17.2111 10.3083 17.6587 9.88474C18.1062 9.4612 18.3748 8.88249 18.4093 8.26727H17.648C17.6222 8.58713 17.5037 8.89254 17.3071 9.14616C17.1105 9.39977 16.8442 9.59059 16.5409 9.69529C16.2375 9.79998 15.9103 9.81401 15.5991 9.73565C15.2879 9.6573 15.0063 9.48996 14.7887 9.2541C14.5711 9.01824 14.4269 8.72408 14.3739 8.4076C14.3208 8.09112 14.3611 7.76603 14.4899 7.47209C14.6186 7.17815 14.8302 6.92811 15.0988 6.75253C15.3674 6.57695 15.6814 6.48345 16.0023 6.48346V5.72351C15.6854 5.723 15.3715 5.78498 15.0785 5.90591C14.7856 6.02683 14.5194 6.20433 14.2951 6.42824C14.0708 6.65215 13.8929 6.91808 13.7715 7.21082C13.6501 7.50356 13.5876 7.81737 13.5876 8.13428C13.5876 8.45119 13.6501 8.765 13.7715 9.05774C13.8929 9.35048 14.0708 9.61641 14.2951 9.84032C14.5194 10.0642 14.7856 10.2417 15.0785 10.3627C15.3715 10.4836 15.6854 10.5456 16.0023 10.545Z" fill="#9333EA"/>
<path d="M15.3353 7.34276L14.7234 7.90206L15.6345 8.89882C15.673 8.94098 15.7198 8.97471 15.772 8.99792C15.8242 9.02113 15.8806 9.0333 15.9377 9.03369H15.9404C15.9971 9.03368 16.0531 9.02206 16.1051 8.99955C16.1571 8.97704 16.204 8.94412 16.2427 8.9028L18.1768 6.84131L17.5722 6.27405L15.9444 8.0091L15.3353 7.34276Z" fill="#9333EA"/>
</svg>
