<svg width="33" height="33" viewBox="0 0 33 33" fill="none" xmlns="http://www.w3.org/2000/svg">
<path fill-rule="evenodd" clip-rule="evenodd" d="M6.41992 29.6666H28.4199C28.9719 29.6666 29.4199 29.2186 29.4199 28.6666V10.6666C29.4199 10.1146 28.9719 9.66663 28.4199 9.66663H24.4199C23.8679 9.66663 23.4199 10.1146 23.4199 10.6666V27.6666H21.4199V15.6666C21.4199 15.1146 20.9719 14.6666 20.4199 14.6666H16.4199C15.8679 14.6666 15.4199 15.1146 15.4199 15.6666V27.6666H13.4199V19.6786C13.4199 19.1266 12.9719 18.6786 12.4199 18.6786H8.41992C7.86792 18.6786 7.41992 19.1266 7.41992 19.6786V27.6666H6.41992C6.15492 27.6666 5.89992 27.5616 5.71292 27.3736C5.52492 27.1866 5.41992 26.9316 5.41992 26.6666V4.66663C5.41992 4.11463 4.97192 3.66663 4.41992 3.66663C3.86792 3.66663 3.41992 4.11463 3.41992 4.66663V26.6666C3.41992 27.4626 3.73592 28.2256 4.29892 28.7876C4.86092 29.3506 5.62392 29.6666 6.41992 29.6666Z" fill="#FFBA07"/>
<path fill-rule="evenodd" clip-rule="evenodd" d="M10.4229 4.66663H10.4199C8.76392 4.66663 7.41992 6.01063 7.41992 7.66663C7.41992 9.32263 8.76392 10.6666 10.4199 10.6666H12.4199C12.9719 10.6666 13.4199 11.1146 13.4199 11.6666C13.4199 12.2186 12.9719 12.6666 12.4199 12.6666H9.41992C8.86792 12.6666 8.41992 13.1146 8.41992 13.6666C8.41992 14.2186 8.86792 14.6666 9.41992 14.6666H10.4229V15.6666C10.4229 16.2186 10.8719 16.6666 11.4229 16.6666C11.9749 16.6666 12.4229 16.2186 12.4229 15.6666V14.6666C14.0779 14.6646 15.4199 13.3216 15.4199 11.6666C15.4199 10.0106 14.0759 8.66663 12.4199 8.66663H10.4199C9.86792 8.66663 9.41992 8.21863 9.41992 7.66663C9.41992 7.11463 9.86792 6.66663 10.4199 6.66663H13.4199C13.9719 6.66663 14.4199 6.21863 14.4199 5.66663C14.4199 5.11463 13.9719 4.66663 13.4199 4.66663H12.4229V3.66663C12.4229 3.11463 11.9749 2.66663 11.4229 2.66663C10.8719 2.66663 10.4229 3.11463 10.4229 3.66663V4.66663Z" fill="#FFBA07"/>
</svg>
