<svg width="32" height="32" viewBox="0 0 32 32" fill="none" xmlns="http://www.w3.org/2000/svg">
<g clip-path="url(#clip0_729_81)">
<path fill-rule="evenodd" clip-rule="evenodd" d="M23.7557 11.0836V31.5313H8.24438V11.0836C9.41966 8.78243 10.5949 6.48134 11.7703 4.18018H20.2298C21.4051 6.48134 22.5803 8.78243 23.7557 11.0836Z" fill="#C5E5F9"/>
<path fill-rule="evenodd" clip-rule="evenodd" d="M6.36938 16.1306H25.6307V25.2499H6.36938V16.1306Z" fill="#FFF97F"/>
<path d="M24.2245 11.0837V15.6618H25.6307C25.8896 15.6618 26.0995 15.8716 26.0995 16.1305V25.2498C26.0995 25.5087 25.8896 25.7185 25.6307 25.7185H24.2245V31.5313C24.2245 31.7902 24.0146 32.0001 23.7557 32.0001H8.24439C7.98551 32.0001 7.77564 31.7902 7.77564 31.5313V25.7185H6.36939C6.1105 25.7185 5.90063 25.5087 5.90063 25.2498V16.1305C5.90063 15.8716 6.1105 15.6618 6.36939 15.6618H7.77564V11.0837C7.77564 10.9912 7.80244 10.905 7.84858 10.8324L11.3546 3.96785C11.4371 3.80648 11.6007 3.71354 11.7703 3.7134V3.71148H15.5313V0.468751C15.5313 0.209868 15.7412 0 16 0C16.2589 0 16.4688 0.209868 16.4688 0.468751V3.71148H20.2298C20.4276 3.71148 20.5968 3.83402 20.6656 4.00734L24.1714 10.8713C24.2062 10.9394 24.2226 11.0121 24.2225 11.0837L24.2245 11.0837ZM11.0608 21.6253C11.0608 21.9087 10.9877 22.1639 10.8417 22.3896C10.6966 22.6153 10.4829 22.7919 10.2016 22.9195C9.92032 23.0471 9.58776 23.1114 9.20176 23.1114C8.73943 23.1114 8.35889 23.0242 8.05801 22.8497C7.84533 22.7233 7.67201 22.5564 7.53899 22.346C7.40596 22.1366 7.33945 21.9327 7.33945 21.7343C7.33945 21.6198 7.37976 21.5206 7.45941 21.4388C7.53899 21.3571 7.64034 21.3156 7.76465 21.3156C7.86497 21.3156 7.9489 21.3483 8.01874 21.4116C8.08739 21.4759 8.1463 21.5708 8.19538 21.6961C8.25533 21.8455 8.31962 21.9699 8.38946 22.0701C8.45811 22.1694 8.55629 22.2522 8.68163 22.3176C8.80705 22.382 8.97167 22.4147 9.17666 22.4147C9.45799 22.4147 9.68587 22.3493 9.86141 22.2184C10.037 22.0876 10.1252 21.924 10.1252 21.7277C10.1252 21.5729 10.0784 21.4465 9.98351 21.3494C9.88865 21.2524 9.76544 21.1782 9.61611 21.1281C9.46559 21.0768 9.26495 21.0223 9.01315 20.9645C8.67728 20.886 8.39492 20.7933 8.16807 20.6887C7.9413 20.5829 7.7614 20.439 7.62838 20.2569C7.49536 20.0748 7.42885 19.8491 7.42885 19.5787C7.42885 19.3214 7.49861 19.0924 7.6393 18.8917C7.77993 18.6922 7.98382 18.5385 8.24987 18.4305C8.51591 18.3226 8.82883 18.2692 9.1887 18.2692C9.47652 18.2692 9.72514 18.3052 9.93449 18.376C10.1449 18.448 10.3183 18.5418 10.4568 18.6606C10.5952 18.7784 10.6966 18.9027 10.761 19.0324C10.8242 19.1621 10.8569 19.2887 10.8569 19.413C10.8569 19.5253 10.8166 19.6267 10.737 19.7172C10.6573 19.8077 10.5571 19.8535 10.4382 19.8535C10.3291 19.8535 10.2474 19.8262 10.1907 19.7717C10.134 19.7182 10.0729 19.6288 10.0075 19.5056C9.92135 19.329 9.81999 19.1906 9.70004 19.0913C9.58119 18.9921 9.38926 18.943 9.12543 18.943C8.88013 18.943 8.68274 18.9964 8.53333 19.1044C8.38289 19.2123 8.30766 19.341 8.30766 19.4926C8.30766 19.5863 8.33276 19.667 8.38399 19.7346C8.43522 19.8033 8.50609 19.8622 8.59549 19.9113C8.68495 19.9592 8.77546 19.9984 8.86699 20.0258C8.9586 20.053 9.10905 20.0934 9.32061 20.1467C9.58444 20.2089 9.82325 20.2765 10.037 20.3517C10.2518 20.4259 10.4328 20.5164 10.5832 20.6232C10.7337 20.729 10.8504 20.8642 10.9343 21.0267C11.0182 21.1903 11.0608 21.3898 11.0608 21.6253ZM13.9263 18.2692C14.4125 18.2692 14.8291 18.3673 15.1779 18.5646C15.5258 18.762 15.7897 19.0412 15.9685 19.4043C16.1473 19.7673 16.2367 20.1936 16.2367 20.6843C16.2367 21.0463 16.1876 21.3745 16.0895 21.671C15.9913 21.9665 15.8453 22.2239 15.649 22.4408C15.4528 22.6578 15.2117 22.8236 14.9272 22.9392C14.6415 23.0536 14.3144 23.1114 13.9459 23.1114C13.5795 23.1114 13.2513 23.0526 12.9613 22.9337C12.6724 22.8159 12.4303 22.6491 12.2362 22.4343C12.0421 22.2195 11.896 21.96 11.7968 21.658C11.6976 21.356 11.6485 21.0289 11.6485 20.6777C11.6485 20.3179 11.6997 19.9876 11.8034 19.6877C11.9069 19.3868 12.0563 19.1317 12.2526 18.9212C12.4488 18.7097 12.6865 18.5483 12.9679 18.4371C13.2491 18.3248 13.5686 18.2692 13.9263 18.2692ZM15.275 20.6777C15.275 20.3343 15.2194 20.0377 15.1093 19.7858C14.998 19.5351 14.84 19.3443 14.6339 19.2156C14.4289 19.0869 14.1934 19.0226 13.9263 19.0226C13.7365 19.0226 13.562 19.0586 13.4007 19.1294C13.2404 19.2014 13.1019 19.305 12.9853 19.4413C12.8697 19.5776 12.7781 19.752 12.7105 19.9636C12.644 20.1751 12.6102 20.4139 12.6102 20.6777C12.6102 20.9438 12.644 21.1848 12.7105 21.3996C12.7781 21.6143 12.873 21.7932 12.9951 21.9349C13.1172 22.0767 13.2579 22.1825 13.4171 22.2522C13.5752 22.3231 13.7496 22.358 13.9393 22.358C14.1825 22.358 14.4049 22.297 14.6088 22.1759C14.8127 22.0549 14.974 21.8673 15.094 21.6133C15.2151 21.3603 15.275 21.0484 15.275 20.6777ZM17.9769 18.8438V22.2522H19.9002C20.0529 22.2522 20.1706 22.2893 20.2524 22.3645C20.3352 22.4387 20.3756 22.5324 20.3756 22.6447C20.3756 22.7603 20.3352 22.853 20.2545 22.9249C20.1739 22.9959 20.055 23.0318 19.9002 23.0318H17.6094C17.4034 23.0318 17.254 22.986 17.1635 22.8944C17.0729 22.8028 17.0282 22.6545 17.0282 22.4506V18.8438C17.0282 18.653 17.0718 18.5091 17.158 18.4131C17.2441 18.3171 17.3575 18.2692 17.4982 18.2692C17.64 18.2692 17.7555 18.3161 17.8438 18.411C17.9321 18.5058 17.9769 18.6508 17.9769 18.8438ZM21.587 18.3488H22.8234C23.1451 18.3488 23.4209 18.3783 23.651 18.4382C23.8811 18.4981 24.0893 18.6094 24.2768 18.7729C24.7642 19.1906 25.0084 19.8251 25.0084 20.6777C25.0084 20.959 24.9845 21.2153 24.9354 21.4475C24.8863 21.6798 24.81 21.8892 24.7086 22.0756C24.6061 22.262 24.4753 22.4289 24.315 22.5749C24.1896 22.6883 24.0522 22.7788 23.9028 22.8465C23.7545 22.9152 23.5943 22.9631 23.422 22.9904C23.2508 23.0176 23.0578 23.0318 22.843 23.0318H21.6066C21.4343 23.0318 21.3034 23.0057 21.2163 22.9533C21.129 22.901 21.0723 22.8279 21.0461 22.7331C21.0189 22.6382 21.0058 22.515 21.0058 22.3645V18.9299C21.0058 18.726 21.0516 18.5778 21.1432 18.4862C21.2348 18.3946 21.3831 18.3488 21.587 18.3488ZM21.9544 19.099V22.2784H22.6729C22.8311 22.2784 22.9543 22.2741 23.0437 22.2653C23.1331 22.2566 23.2258 22.2359 23.3217 22.2021C23.4176 22.1672 23.5005 22.1192 23.5703 22.0581C23.8876 21.7899 24.0468 21.3276 24.0468 20.6712C24.0468 20.2089 23.977 19.8622 23.8374 19.6321C23.6978 19.4021 23.5256 19.256 23.3217 19.1927C23.1167 19.1305 22.8703 19.099 22.5803 19.099H21.9544ZM23.287 15.6618V11.1921L19.9451 4.64902H16.4688V5.89102C16.9043 5.983 17.2937 6.20047 17.597 6.5038C18.0056 6.91246 18.2586 7.47718 18.2586 8.10072C18.2586 8.72427 18.0057 9.28899 17.597 9.69765C17.1883 10.1063 16.6236 10.3592 16.0001 10.3592C15.3765 10.3592 14.8118 10.1063 14.4031 9.69765C13.9945 9.28899 13.7416 8.72427 13.7416 8.10072C13.7416 7.47717 13.9945 6.91246 14.4031 6.5038C14.7065 6.20047 15.0958 5.983 15.5313 5.89102V4.64902H12.055L8.71315 11.1921V15.6618H23.287ZM23.287 25.7185H8.71315V31.0626H23.287V25.7185ZM25.162 16.5993H6.83813V24.781H25.162V16.5993ZM16.4688 7.03187C16.4688 7.29075 16.2589 7.50062 16 7.50062C15.7412 7.50062 15.5313 7.29075 15.5313 7.03187V6.86533C15.3551 6.93228 15.1969 7.03578 15.066 7.16666C14.827 7.40568 14.6791 7.73602 14.6791 8.10069C14.6791 8.46536 14.827 8.7957 15.066 9.03472C15.305 9.27375 15.6354 9.42168 16 9.42168C16.3647 9.42168 16.6951 9.27375 16.9341 9.03472C17.1731 8.7957 17.321 8.46536 17.321 8.10069C17.321 7.73602 17.1731 7.40568 16.9341 7.16666C16.8032 7.03578 16.645 6.93228 16.4688 6.86533L16.4688 7.03187ZM20.7457 26.9695C21.0045 26.9695 21.2144 27.1794 21.2144 27.4383C21.2144 27.6972 21.0045 27.907 20.7457 27.907H11.2544C10.9955 27.907 10.7856 27.6972 10.7856 27.4383C10.7856 27.1794 10.9955 26.9695 11.2544 26.9695H20.7457ZM20.7457 13.4733C21.0045 13.4733 21.2144 13.6831 21.2144 13.942C21.2144 14.2009 21.0045 14.4108 20.7457 14.4108H11.2544C10.9955 14.4108 10.7856 14.2009 10.7856 13.942C10.7856 13.6831 10.9955 13.4733 11.2544 13.4733H20.7457Z" fill="#901E78"/>
</g>
<defs>
<clipPath id="clip0_729_81">
<rect width="32" height="32" fill="white"/>
</clipPath>
</defs>
</svg>
