<svg width="32" height="32" viewBox="0 0 32 32" fill="none" xmlns="http://www.w3.org/2000/svg">
<g clip-path="url(#clip0_729_188)">
<mask id="mask0_729_188" style="mask-type:luminance" maskUnits="userSpaceOnUse" x="-1" y="0" width="33" height="32">
<path d="M-0.000244141 1.90735e-06H31.9998V32H-0.000244141V1.90735e-06Z" fill="white"/>
</mask>
<g mask="url(#mask0_729_188)">
<path d="M27.4064 16C27.4064 22.2999 22.2993 27.407 15.9994 27.407C9.69953 27.407 4.59253 22.2999 4.59253 16C4.59253 9.70017 9.69953 4.59311 15.9994 4.59311C22.2993 4.59311 27.4064 9.70017 27.4064 16Z" fill="#FE646F"/>
<path d="M24.2315 16.0001C24.2315 20.5466 20.5458 24.2322 15.9994 24.2322C11.453 24.2322 7.76733 20.5466 7.76733 16.0001C7.76733 11.4537 11.453 7.76805 15.9994 7.76805C20.5458 7.76805 24.2315 11.4537 24.2315 16.0001Z" fill="#FDB4BA"/>
<path d="M6.34515 9.92306C5.23528 11.6825 4.59253 13.7661 4.59253 16.0001C4.59253 18.2291 5.2324 20.3082 6.33765 22.0652H25.6613C26.7665 20.3082 27.4064 18.2291 27.4064 16.0001C27.4064 13.7661 26.7637 11.6825 25.6538 9.92306H6.34515Z" fill="#FD4755"/>
<path d="M21.5522 9.92306H10.4467C8.80027 11.4283 7.76733 13.5935 7.76733 16.0001C7.76733 18.4004 8.7949 20.5604 10.4338 22.0652H21.565C23.204 20.5604 24.2315 18.4004 24.2315 16.0001C24.2315 13.5935 23.1986 11.4283 21.5522 9.92306Z" fill="#FE99A0"/>
<path d="M30.7599 20.5515H1.23864C0.813081 20.5515 0.468018 20.2065 0.468018 19.7809V12.2192C0.468018 11.7936 0.813081 11.4486 1.23864 11.4486H30.7599C31.1855 11.4486 31.5305 11.7936 31.5305 12.2192V19.7809C31.5305 20.2065 31.1855 20.5515 30.7599 20.5515Z" fill="#FAF7F7"/>
<path d="M30.7599 11.4486H29.843V18.1559C29.843 18.5815 29.4981 18.9265 29.0724 18.9265H0.468018V19.7809C0.468018 20.2065 0.813081 20.5515 1.23864 20.5515H30.7599C31.1856 20.5515 31.5305 20.2065 31.5305 19.7809V12.2192C31.5305 11.7936 31.1856 11.4486 30.7599 11.4486Z" fill="#F3EAE6"/>
<path d="M26.3749 20.7465C24.574 24.6769 20.6054 27.407 15.9993 27.407C11.4455 27.407 7.51497 24.7386 5.68604 20.8801" stroke="black" stroke-width="0.9375" stroke-miterlimit="10" stroke-linecap="round" stroke-linejoin="round"/>
<path d="M11.8066 5.38825C13.1045 4.87507 14.5189 4.59307 15.9993 4.59307C20.605 4.59307 24.5732 7.32269 26.3743 11.2524" stroke="black" stroke-width="0.9375" stroke-miterlimit="10" stroke-linecap="round" stroke-linejoin="round"/>
<path d="M5.66943 11.1553C6.63081 9.10902 8.18231 7.39496 10.1047 6.23234" stroke="black" stroke-width="0.9375" stroke-miterlimit="10" stroke-linecap="round" stroke-linejoin="round"/>
<path d="M22.6722 20.8219C21.1766 22.888 18.7449 24.2322 15.9993 24.2322C13.257 24.2322 10.8278 22.8912 9.33179 20.8292" stroke="black" stroke-width="0.9375" stroke-miterlimit="10" stroke-linecap="round" stroke-linejoin="round"/>
<path d="M9.27319 11.2527C10.7639 9.1445 13.2209 7.768 15.9993 7.768C18.7446 7.768 21.1761 9.11187 22.6718 11.1777" stroke="black" stroke-width="0.9375" stroke-miterlimit="10" stroke-linecap="round" stroke-linejoin="round"/>
<path d="M23.6492 14.4488V16.5838C23.6492 16.9474 23.8295 17.1922 24.1359 17.388C24.2852 17.4833 24.4736 17.5512 24.7078 17.5515C24.9107 17.5518 25.0802 17.5048 25.2204 17.4343C25.5775 17.2544 25.8051 16.9814 25.8051 16.5816V14.4488" stroke="black" stroke-width="0.9375" stroke-miterlimit="10" stroke-linecap="round" stroke-linejoin="round"/>
<path d="M27.5806 14.4487H29.2941" stroke="black" stroke-width="0.9375" stroke-miterlimit="10" stroke-linecap="round" stroke-linejoin="round"/>
<path d="M28.4338 14.5479V17.5515" stroke="black" stroke-width="0.9375" stroke-miterlimit="10" stroke-linecap="round" stroke-linejoin="round"/>
<path d="M21.8447 16.0001C21.8447 16.8569 21.1501 17.5515 20.2934 17.5515C19.4366 17.5515 18.7419 16.8569 18.7419 16.0001C18.7419 15.1434 19.4366 14.4488 20.2934 14.4488C21.1501 14.4488 21.8447 15.1434 21.8447 16.0001Z" stroke="black" stroke-width="0.9375" stroke-miterlimit="10" stroke-linecap="round" stroke-linejoin="round"/>
<path d="M11.2634 14.4488V17.5489C11.2977 17.5548 12.3499 17.5489 12.3499 17.5489" stroke="black" stroke-width="0.9375" stroke-miterlimit="10" stroke-linecap="round" stroke-linejoin="round"/>
<path d="M14.105 14.4977V17.4565" stroke="black" stroke-width="0.9375" stroke-miterlimit="10" stroke-linecap="round" stroke-linejoin="round"/>
<path d="M16.1737 16.0002C16.1737 16.8298 15.7132 17.4862 14.9827 17.499C14.7395 17.5032 14.1111 17.5056 14.1111 17.5056C14.1111 17.5056 14.1072 16.4151 14.1072 15.9969C14.1072 15.6534 14.105 14.4947 14.105 14.4947H14.9577C15.759 14.4947 16.1737 15.1706 16.1737 16.0002Z" stroke="black" stroke-width="0.9375" stroke-miterlimit="10" stroke-linecap="round" stroke-linejoin="round"/>
<path d="M4.6169 14.7678C4.6169 14.7678 4.06015 14.2998 3.40365 14.4976C2.80078 14.6791 2.71646 15.3743 3.15259 15.6586C3.15259 15.6586 3.58059 15.8495 4.05528 16.0246C5.19784 16.4461 4.70565 17.5515 3.78578 17.5515C3.32515 17.5515 2.93853 17.3498 2.70459 17.0916" stroke="black" stroke-width="0.9375" stroke-miterlimit="10" stroke-linecap="round" stroke-linejoin="round"/>
<path d="M9.44919 16.0001C9.44919 16.8569 8.75462 17.5515 7.89787 17.5515C7.04106 17.5515 6.34644 16.8569 6.34644 16.0001C6.34644 15.1434 7.04106 14.4488 7.89787 14.4488C8.75462 14.4488 9.44919 15.1434 9.44919 16.0001Z" stroke="black" stroke-width="0.9375" stroke-miterlimit="10" stroke-linecap="round" stroke-linejoin="round"/>
<path d="M17.6546 20.5515H1.23864C0.813017 20.5515 0.468018 20.2065 0.468018 19.7809V12.2192C0.468018 11.7936 0.813017 11.4486 1.23864 11.4486H30.7599C31.1855 11.4486 31.5305 11.7936 31.5305 12.2192V19.7809C31.5305 20.2065 31.1855 20.5515 30.7599 20.5515H19.5296" stroke="black" stroke-width="0.9375" stroke-miterlimit="10" stroke-linecap="round" stroke-linejoin="round"/>
</g>
</g>
<defs>
<clipPath id="clip0_729_188">
<rect width="32" height="32" fill="white"/>
</clipPath>
</defs>
</svg>
